<?xml version="1.0" encoding="utf-8"?>
<!-- Generator: Adobe Illustrator 21.0.1, SVG Export Plug-In . SVG Version: 6.00 Build 0)  -->
<svg version="1.1" id="Logo" xmlns="http://www.w3.org/2000/svg" xmlns:xlink="http://www.w3.org/1999/xlink" x="0px" y="0px"
	 viewBox="0 0 113.4 112.5" style="enable-background:new 0 0 113.4 112.5;" xml:space="preserve">
<style type="text/css">
	.st0{fill:#FFFFFF;}
</style>
<g>
	<path class="st0" d="M33.4,25.7v3.5V62l-11.1-6V16.1L50,0v13.4l-16.6,10V25.7z M81,10.1V43v5.7l-16.6,10V72L91,56V16.1L81,10.1z
		 M74.4,6.1l-10-6v31.7H50V21.4l-10,6v38.7l10,6V40.7h14.4v10.1l10-6V6.1z"/>
	<path class="st0" d="M11.2,106.4v-8.1H3.8v8.1H0V86.9h3.8v8.2h7.4v-8.2H15v19.5H11.2z M28.1,106.4h-3l-0.3-1
		c-1.3,0.8-2.9,1.2-4.4,1.2c-2.7,0-3.8-1.8-3.8-4.2c0-2.9,1.3-4,4.3-4h3.5V97c0-1.6-0.5-2.1-2.8-2.1c-1.3,0-2.8,0.2-4.1,0.4L17,92.6
		c1.4-0.4,3.4-0.7,5-0.7c4.6,0,6,1.6,6,5.1L28.1,106.4L28.1,106.4z M24.4,101.1h-2.7c-1.2,0-1.5,0.3-1.5,1.4c0,1,0.3,1.4,1.5,1.4
		c1.1,0,2.1-0.3,2.8-0.7L24.4,101.1L24.4,101.1z M35,106.7c-1.6,0-3.7-0.3-5.1-0.8l0.5-2.7c1.2,0.3,2.9,0.6,4.4,0.6
		c1.6,0,1.9-0.3,1.9-1.4c0-0.9-0.2-1.3-2.6-1.8c-3.6-0.8-4-1.7-4-4.4c0-2.8,1.3-4.1,5.5-4.1c1.4,0,3.1,0.2,4.4,0.5l-0.4,2.8
		c-1.1-0.2-2.9-0.4-4-0.4c-1.6,0-1.9,0.3-1.9,1.2c0,1.1,0.1,1.2,2.1,1.7c4.1,1,4.5,1.6,4.5,4.4C40.3,105,39.5,106.7,35,106.7z
		 M51.1,106.4v-9.8c0-0.8-0.3-1.1-1.2-1.1s-2.5,0.5-3.8,1.2v9.8h-3.7V86.7l3.7,0.5v6.2c1.6-0.8,3.8-1.4,5.4-1.4
		c2.4,0,3.3,1.6,3.3,4.2v10.2L51.1,106.4L51.1,106.4z M57.4,90.3v-3.4h3.7v3.4H57.4z M57.4,106.4V92.3h3.7v14.1H57.4z M63.6,92.4
		c0-3.5,2.1-5.6,7.1-5.6c1.9,0,3.8,0.2,5.4,0.6l-0.4,3.1c-1.6-0.3-3.5-0.5-4.9-0.5c-2.6,0-3.5,0.9-3.5,2.9v7.4c0,2,0.8,2.9,3.5,2.9
		c1.4,0,3.3-0.2,4.9-0.5l0.4,3.1c-1.7,0.4-3.6,0.6-5.4,0.6c-5,0-7.1-2-7.1-5.6V92.4z M83.5,106.7c-5,0-6.4-2.7-6.4-5.5v-3.6
		c0-2.9,1.4-5.5,6.4-5.5s6.4,2.7,6.4,5.5v3.6C89.9,104,88.5,106.7,83.5,106.7z M83.5,95c-2,0-2.7,0.8-2.7,2.4v3.8
		c0,1.6,0.8,2.4,2.7,2.4c2,0,2.7-0.8,2.7-2.4v-3.8C86.2,95.9,85.5,95,83.5,95z M99.5,95.3c-1.4,0.6-2.6,1.2-3.9,2v9.1h-3.7V92.3H95
		l0.2,1.6c0.8-0.5,2.6-1.5,3.8-1.8L99.5,95.3z M113.4,101.7c0,3.1-1.4,5-4.8,5c-1.3,0-2.8-0.2-3.9-0.4v5.7l-3.7,0.5V92.3h2.9
		l0.4,1.2c1.3-0.9,2.8-1.5,4.6-1.5c2.9,0,4.5,1.7,4.5,4.9V101.7z M104.7,103.3c1,0.2,2.2,0.4,3.2,0.4c1.3,0,1.8-0.6,1.8-1.9v-5
		c0-1.2-0.5-1.8-1.8-1.8c-1.2,0-2.5,0.6-3.3,1.3v7H104.7z"/>
</g>
</svg>
